<?xml version="1.0" encoding="UTF-8" standalone="no"?> <svg xmlns="http://www.w3.org/2000/svg" xmlns:xlink="http://www.w3.org/1999/xlink" viewBox="0 0 64 64"><defs><style>.cls-1{fill:url(#linear-gradient);}</style><linearGradient id="linear-gradient" x1="10.5" y1="32" x2="53.5" y2="32" gradientUnits="userSpaceOnUse"><stop offset="0" stop-color="#19dd33"/><stop offset="0.43" stop-color="#0fa922"/><stop offset="0.8" stop-color="#088215"/><stop offset="1" stop-color="#057310"/></linearGradient></defs><g id="Layer_100" data-name="Layer 100"><path class="cls-1" d="M52,39.63H41.87L43.4,24.37H52a1.5,1.5,0,0,0,0-3H43.7l.92-9.22a1.5,1.5,0,0,0-3-.3l-1,9.52H25.44l.93-9.22A1.5,1.5,0,0,0,25,10.51a1.48,1.48,0,0,0-1.64,1.34l-.95,9.52H12a1.5,1.5,0,0,0,0,3H22.13L20.6,39.63H12a1.5,1.5,0,0,0,0,3h8.3l-.92,9.22a1.5,1.5,0,0,0,3,.3l.95-9.52H38.56l-.93,9.22a1.5,1.5,0,0,0,3,.3l1-9.52H52A1.5,1.5,0,0,0,52,39.63Zm-28.38,0,1.52-15.26H40.38L38.86,39.63Z"/></g></svg>